<?xml version="1.0" encoding="utf-8"?>
<svg version="1.1" id="Layer_1" xmlns="http://www.w3.org/2000/svg" xmlns:xlink="http://www.w3.org/1999/xlink" x="0px" y="0px"
	 viewBox="0 0 410 410" style="enable-background:new 0 0 410 410;" xml:space="preserve">
<g>
	<path fill="#fff" d="M76.49,97.1c-9.29-3.56-16.58-8.42-21.88-14.58c-5.3-6.16-7.94-14.1-7.94-23.83c0-10.07,2.65-18.92,7.94-26.56
		c5.29-7.64,12.76-13.54,22.4-17.71s20.79-6.25,33.46-6.25c12.15,0,23.31,2.56,33.46,7.68c10.16,5.12,18.18,12.28,24.09,21.48
		c5.9,9.2,8.85,19.71,8.85,31.51h-9.64c0-10.24-2.52-19.27-7.55-27.08c-5.04-7.81-11.89-13.84-20.57-18.1
		c-8.68-4.25-18.32-6.38-28.91-6.38c-9.37,0-18.14,1.48-26.3,4.43c-8.16,2.95-14.8,7.47-19.92,13.54
		c-5.12,6.08-7.68,13.72-7.68,22.92c0,8.33,2.43,14.97,7.29,19.92c4.86,4.95,11.2,8.72,19.01,11.33s18.75,5.38,32.81,8.33
		c14.23,2.95,25.3,5.77,33.2,8.46c7.9,2.69,14.58,7.16,20.05,13.41c5.47,6.25,8.2,15.02,8.2,26.3c0,11.29-3,20.79-8.98,28.52
		c-5.99,7.73-13.93,13.5-23.83,17.32c-9.9,3.82-20.66,5.73-32.29,5.73c-14.41,0-27.08-2.69-38.02-8.07
		c-10.94-5.38-19.32-12.98-25.13-22.79c-5.82-9.81-8.72-21.05-8.72-33.72h9.64c0,11.11,2.47,20.83,7.42,29.17
		c4.95,8.33,12.11,14.8,21.48,19.4c9.37,4.6,20.48,6.9,33.33,6.9c15.97,0,29.21-3.82,39.71-11.46c10.5-7.64,15.76-18.05,15.76-31.25
		c0-9.02-2.26-15.97-6.77-20.83c-4.52-4.86-10.2-8.37-17.06-10.55c-6.86-2.17-17.15-4.64-30.86-7.42
		C97.8,103.92,85.77,100.66,76.49,97.1z"/>
	<path fill="#fff"  d="M338.85,18.46c11.46,6.69,20.53,15.75,27.21,27.21c6.68,11.46,10.03,23.96,10.03,37.5v39.58c0,13.54-3.34,26.04-10.03,37.5
		c-6.69,11.46-15.75,20.53-27.21,27.21c-11.46,6.68-23.96,10.03-37.5,10.03c-13.54,0-26.04-3.34-37.5-10.03
		s-20.53-15.75-27.21-27.21c-6.69-11.46-10.03-23.96-10.03-37.5V83.17c0-13.54,3.34-26.04,10.03-37.5
		c6.68-11.46,15.75-20.53,27.21-27.21c11.46-6.68,23.96-10.03,37.5-10.03C314.89,8.43,327.39,11.78,338.85,18.46z M244.97,155.44
		c5.81,9.99,13.71,17.88,23.7,23.7c9.98,5.82,20.87,8.72,32.68,8.72c11.8,0,22.7-2.91,32.68-8.72c9.98-5.81,17.88-13.71,23.7-23.7
		c5.81-9.98,8.72-20.87,8.72-32.68V83.17c0-11.8-2.91-22.7-8.72-32.68c-5.82-9.98-13.72-17.88-23.7-23.7
		c-9.99-5.81-20.88-8.72-32.68-8.72c-11.81,0-22.7,2.91-32.68,8.72c-9.99,5.82-17.88,13.72-23.7,23.7
		c-5.82,9.98-8.72,20.88-8.72,32.68v39.58C236.25,134.56,239.15,145.45,244.97,155.44z"/>
	<path fill="#fff"  d="M183.65,401.33H44.33V220.09h70.57c15.1,0,27.43,2.69,36.98,8.07c9.38,5.21,16.67,12.33,21.88,21.35
		c5.21,9.03,7.81,19.01,7.81,29.95c0,13.54-4.17,25.65-12.5,36.33c-8.33,10.68-18.84,17.75-31.51,21.22L183.65,401.33z
		 M53.96,235.97v93.49h66.93L53.96,235.97z M53.96,391.7h111.46l-38.02-52.86l-8.07,0.26H53.96V391.7z M60.73,229.72l70.83,98.96
		c11.63-2.43,21.26-8.24,28.91-17.45c7.64-9.2,11.46-19.79,11.46-31.77c0-9.55-2.34-18.23-7.03-26.04
		c-4.69-7.81-11.29-13.8-19.79-17.97c-7.64-3.82-17.62-5.73-29.95-5.73H60.73z"/>
	<path fill="#fff"  d="M296.67,401.33V265.92h-68.49v-45.83h146.35v45.83h-68.49v135.42H296.67z"/>
</g>
<g>
</g>
<g>
</g>
<g>
</g>
<g>
</g>
<g>
</g>
<g>
</g>
</svg>
